<svg width="19" height="18" viewBox="0 0 19 18" fill="none" xmlns="http://www.w3.org/2000/svg">
<path fill-rule="evenodd" clip-rule="evenodd" d="M17.0952 3.20332C15.4326 0.744252 12.1804 0.3439 9.99933 2.00056C9.70693 2.22411 9.29298 2.22411 9.00058 2.00056C6.81946 0.3439 3.56735 0.744252 1.90474 3.20332C0.605928 5.12433 0.758928 7.66074 2.02204 9.60555C3.6651 12.1386 6.78121 16.3002 9.49953 16.3002C12.2195 16.3002 15.3348 12.1386 16.9787 9.60555C18.241 7.66074 18.394 5.12433 17.0952 3.20332Z" stroke="#27273B" stroke-width="1.5" stroke-linecap="round"/>
<path d="M17.0952 3.20332C15.4326 0.744252 12.1804 0.3439 9.99933 2.00056C9.70693 2.22411 9.29298 2.22411 9.00058 2.00056C6.81946 0.3439 3.56735 0.744252 1.90474 3.20332C0.605928 5.12433 0.758928 7.66074 2.02204 9.60555" stroke="#6E37FF" stroke-width="1.5" stroke-linecap="round"/>
</svg>
