<svg width="19" height="19" viewBox="0 0 19 19" fill="none" xmlns="http://www.w3.org/2000/svg">
<path fill-rule="evenodd" clip-rule="evenodd" d="M15.8623 15.7167L10.7622 17.7558C9.9522 18.0805 9.04695 18.0805 8.2369 17.7558L3.1369 15.7167C1.8466 15.2007 1 13.9504 1 12.5598V6.43979C1 5.04919 1.8466 3.79884 3.1369 3.28289L8.2369 1.24289C9.04695 0.919037 9.9522 0.919037 10.7622 1.24289L15.8623 3.28289C17.1534 3.79884 18 5.04919 18 6.43979V12.5598C18 13.9504 17.1534 15.2007 15.8623 15.7167Z" stroke="#27273B" stroke-width="1.5" stroke-linecap="round"/>
<path d="M9.49966 14.5621V9.93551C9.49966 8.76081 10.2145 7.70511 11.3051 7.26821L14.9754 5.80026L10.5664 7.56401C9.88131 7.83771 9.11801 7.83771 8.43291 7.56401L4.02396 5.80026" stroke="#6E37FF" stroke-width="1.5" stroke-linecap="round" stroke-linejoin="round"/>
</svg>
