<svg width="19" height="19" viewBox="0 0 19 19" fill="none" xmlns="http://www.w3.org/2000/svg">
<path fill-rule="evenodd" clip-rule="evenodd" d="M8.01392 10.7141L1.84287 7.44241C0.719164 6.84656 0.719164 5.23664 1.84287 4.63994L8.01392 1.36912C8.94383 0.876962 10.0556 0.876962 10.9855 1.36912L17.1566 4.63994C18.2811 5.23664 18.2811 6.84656 17.1566 7.44241L10.9413 10.7574C10.0131 11.2504 8.94383 11.2062 8.01392 10.7141Z" stroke="#27273B" stroke-width="1.5" stroke-linecap="round"/>
<path d="M17.1565 11.5566C18.2811 12.1525 18.2811 13.7641 17.1565 14.36L10.9854 17.6308C10.0555 18.1229 8.94373 18.1229 8.01383 17.6308L1.84278 14.36C0.719073 13.7641 0.719073 12.1525 1.84278 11.5566" stroke="#6E37FF" stroke-width="1.5" stroke-linecap="round"/>
</svg>
