<svg width="19" height="19" viewBox="0 0 19 19" fill="none" xmlns="http://www.w3.org/2000/svg">
<path fill-rule="evenodd" clip-rule="evenodd" d="M12.4878 2.84195C11.6625 1.85085 10.6263 1 9.50008 1C8.37468 1 7.33853 1.85085 6.51318 2.84195C5.24073 4.3694 5.36143 6.62275 6.76818 8.0295C8.27693 9.53825 10.7241 9.53825 12.2328 8.0295C13.6387 6.62275 13.7611 4.3694 12.4878 2.84195Z" stroke="#030835" stroke-width="1.5"/>
<path fill-rule="evenodd" clip-rule="evenodd" d="M3.8475 18H15.1542C16.7258 18 18 16.725 18 15.1525C18 13.5809 16.7258 12.3067 15.1542 12.3067H3.8475C2.275 12.3067 1 13.5809 1 15.1525C1 16.725 2.275 18 3.8475 18Z" stroke="#27273B" stroke-width="1.5"/>
<path d="M6.51294 2.84198C5.24049 4.36943 5.36204 6.62278 6.76794 8.02953" stroke="#6E37FF" stroke-width="1.5" stroke-linecap="round"/>
<path d="M3.8475 18H15.1542C16.7259 18 18 16.725 18 15.1525C18 13.5809 16.7259 12.3067 15.1542 12.3067" stroke="#6E37FF" stroke-width="1.5" stroke-linecap="round"/>
</svg>
