<svg width="19" height="19" viewBox="0 0 19 19" fill="none" xmlns="http://www.w3.org/2000/svg">
<path fill-rule="evenodd" clip-rule="evenodd" d="M10.3324 14.1713C10.3324 12.0572 12.0467 10.3429 14.1608 10.3429C16.2749 10.3429 17.9891 12.0572 17.9891 14.1713C17.9891 16.2854 16.2749 17.9997 14.1608 17.9997C12.0467 17.9997 10.3324 16.2854 10.3324 14.1713Z" stroke="#27273B" stroke-width="1.5" stroke-linecap="round"/>
<path fill-rule="evenodd" clip-rule="evenodd" d="M1 4.83884C1 2.72473 2.71426 1.01047 4.82837 1.01047C6.94248 1.01047 8.65674 2.72473 8.65674 4.83884C8.65674 6.95295 6.94248 8.66721 4.82837 8.66721C2.71426 8.66721 1 6.95295 1 4.83884Z" stroke="#27273B" stroke-width="1.5" stroke-linecap="round"/>
<path fill-rule="evenodd" clip-rule="evenodd" d="M1 15.4474C1 14.0377 2.14341 12.8952 3.55225 12.8952C4.96194 12.8952 6.10449 14.0377 6.10449 15.4474C6.10449 16.8571 4.96194 17.9997 3.55225 17.9997C2.14341 17.9997 1 16.8571 1 15.4474Z" stroke="#6E37FF" stroke-width="1.5" stroke-linecap="round"/>
<path fill-rule="evenodd" clip-rule="evenodd" d="M12.8955 3.55225C12.8955 2.14256 14.0381 1 15.4478 1C16.8566 1 18 2.14256 18 3.55225C18 4.96194 16.8566 6.10449 15.4478 6.10449C14.0381 6.10449 12.8955 4.96194 12.8955 3.55225Z" stroke="#6E37FF" stroke-width="1.5" stroke-linecap="round"/>
</svg>
